<svg xmlns="http://www.w3.org/2000/svg" viewBox="0 0 181.65 95.85"><rect width="181.65" height="95.85" fill="none"></rect><path d="M84.88,65.84C52.71,78.33,23.54,79.78,19.57,69c-1.76-4.76,1.71-11.12,8.9-17.83V48.41c-10.69,9-16.15,17.84-13.73,24.38,4.66,12.6,36.81,11.69,71.81-2q5.91-2.32,11.4-4.91Z" fill="#04263b"></path><path d="M71.64,26.15C103.81,13.67,133,12.21,137,23c1.34,3.62-.36,8.17-4.42,13.1h5.93c3.22-4.81,4.4-9.29,3-13-4.66-12.6-36.81-11.69-71.82,2l-2.61,1Z" fill="#04263b"></path><path d="M126.64,60.17V41.75h15.78q4.14,0,4.14,3.57v4.32q0,3.57-4.14,3.57H140l8.5,7h-6.14l-7.43-7h-4.07v7Zm13.85-15.28h-9.64v5.18h9.64a3.17,3.17,0,0,0,1.39-.22,1.36,1.36,0,0,0,.54-1.26V46.36a1.36,1.36,0,0,0-.54-1.26A3.2,3.2,0,0,0,140.49,44.89Z" fill="#727171"></path><path d="M155,60.17c-1.77,0-3-.3-3.61-.89s-1-1.75-1-3.46V52l4.28-.82v5.54h8.46v-15h4.29V55.82c0,1.71-.32,2.86-1,3.46s-1.84.89-3.6.89Z" fill="#727171"></path><polygon points="75.98 60.17 75.98 31.82 82.58 31.82 82.58 42.81 103.18 42.81 103.18 31.82 109.83 31.82 109.83 60.17 103.18 60.17 103.18 48.29 82.58 48.29 82.58 60.17 75.98 60.17" fill="#04263b"></polygon><rect x="115.79" y="31.82" width="6.59" height="28.35" fill="#04263b"></rect><polygon points="52.32 48.37 63.44 39.77 63.44 60.17 70.03 60.17 70.03 31.82 64.27 31.82 52.09 41.25 39.9 31.82 34.14 31.82 34.14 60.17 40.73 60.17 40.73 39.77 51.85 48.37 52.32 48.37" fill="#04263b"></polygon></svg>